<svg width="126" height="118" viewBox="0 0 126 118" fill="none" xmlns="http://www.w3.org/2000/svg">
<path d="M19.8295 0.0780202C14.8721 0.708154 10.5427 3.04336 7.10557 6.91683C3.56931 10.9015 1.33849 15.8499 0.380066 21.8547C0.0165246 24.0973 0 24.4865 0 36.5702C0 49.5065 0.0495738 50.5814 0.760131 54.77C2.79266 66.6869 9.08852 76.7135 17.5987 81.6063C24.1755 85.3685 31.4959 85.8319 38.1718 82.8851C39.1798 82.4588 40.5018 81.9955 41.1297 81.8843C42.2203 81.6989 42.3195 81.6989 43.1622 82.1623C43.6414 82.4403 44.2859 82.9777 44.5668 83.3855L45.0791 84.1083H47.9544H50.8131V74.23C50.8131 68.2437 50.8792 64.0552 50.9949 63.5548C51.375 61.6458 52.1681 61.0898 54.6633 60.9786L56.4315 60.886V67.4839V74.0817L58.0509 76.454C58.9267 77.7699 60.0999 79.4749 60.6452 80.2719L61.6202 81.6989H64.9747H68.3127L68.8084 80.5313C69.9816 77.7699 70.6426 77.7328 74.245 80.1051C75.9635 81.2171 77.4673 81.7545 79.8964 82.0881C84.7216 82.7368 89.018 81.0317 92.4551 77.0841C94.1902 75.0825 95.2808 73.0995 96.107 70.338L96.7515 68.2623V71.0793V73.8964L98.4866 76.4911L100.222 79.1043H108.153H116.085V76.2687V73.4516L114.268 70.7828L112.45 68.114V64.4444V60.7562H114.582C115.738 60.7562 117.044 60.7006 117.473 60.645L118.233 60.5153V58.0504V55.5669L115.342 51.5822L112.45 47.6161V46.2632C112.45 44.762 112.846 43.5017 113.408 43.1681C113.987 42.8159 114.829 42.9271 115.226 43.3719C115.771 44.0392 115.92 44.7249 115.92 46.6338V48.4316L117.705 51.0633L119.473 53.7136H122.745H126V46.3002V38.8869L123.984 35.8289L121.951 32.7709H109.36H96.7515V35.625V38.4977L97.7099 38.7015C99.098 38.9981 99.4615 39.2019 99.8251 39.8691C100.122 40.4437 100.139 40.9255 100.139 53.3429C100.139 66.0012 100.139 66.2421 99.792 66.8722C99.3954 67.6507 98.9492 67.9101 97.6934 68.0769L96.735 68.2067L96.8671 67.0205C97.115 64.815 96.9993 60.645 96.6193 58.4396C95.7104 53.2132 93.9919 49.525 90.8026 45.9296C88.0926 42.8715 84.7546 40.629 79.8964 38.6089C75.1208 36.6258 73.9475 35.3841 74.1458 32.5114C74.3441 29.9167 75.7487 28.5082 78.1778 28.5082C80.4417 28.5082 81.995 30.4727 82.9204 34.5315L83.2839 36.1439L86.7045 39.7394L90.1251 43.3349H92.6864H95.2643V34.2906V25.2278L92.422 20.9466L89.5633 16.6654L86.7706 16.6468H83.9945L83.4327 17.2028C83.1187 17.4994 82.6725 17.8144 82.4412 17.87C82.1933 17.9442 81.0696 17.7218 79.599 17.3326C74.3772 15.887 70.246 15.9611 66.3958 17.5364C59.9016 20.2052 56.3654 26.8773 57.0759 35.1246C57.7039 42.3897 60.6122 48.376 65.7679 53.0093C67.5691 54.6217 69.1719 55.604 72.2951 57.0496C75.6991 58.6064 76.9385 59.3477 77.8143 60.3485C79.8138 62.6652 77.6325 65.649 74.1458 65.3525C72.1298 65.1672 70.3452 64.1478 68.5936 62.1648C67.503 60.9416 65.3217 57.309 64.0328 54.5846L63.1735 52.7869H60.2156H57.2577V50.6926V48.5798L55.3243 46.189C54.2502 44.8546 53.1266 43.4646 52.8456 43.0939L52.3003 42.3897V26.6919L52.2838 10.9942L49.2268 7.10216C47.5412 4.95229 45.707 2.59856 45.1452 1.87576L44.1207 0.541354L39.6425 0.522821H35.1643L35.0652 1.69042C34.933 3.21016 34.6851 3.85883 34.1894 3.85883C33.9911 3.85883 32.7848 3.28429 31.5124 2.56149C28.9841 1.13442 27.0342 0.467221 24.6216 0.152154C23.217 -0.0146466 20.9367 -0.0517134 19.8295 0.0780202ZM26.555 2.45029C27.4308 2.69122 29.1329 3.41402 30.3557 4.04416C33.5945 5.7307 34.0737 5.91603 34.933 5.86043C35.627 5.80483 35.7096 5.74923 36.0567 5.06349C36.255 4.65576 36.4698 3.87736 36.5359 3.35842L36.635 2.37616H40.006H43.3771V18.8708V35.3655H38.2544H33.1318V33.6419C33.1318 29.0086 31.942 21.9845 30.4548 17.7774C28.3397 11.8652 25.2991 8.9555 21.5646 9.30763C18.5902 9.58563 16.5246 11.7355 15.7149 15.4422C15.1696 17.8515 15.12 19.779 15.12 35.9771C15.12 54.1584 15.1365 54.529 16.2271 58.1986C17.8796 63.8142 20.9201 66.5942 25.0348 66.2421C28.5875 65.9456 30.8349 64.4444 32.0412 61.5902C33.3797 58.4025 33.4623 53.0834 32.1734 51.0262C31.4959 49.9513 30.8349 49.5806 29.3146 49.488L28.0092 49.3953V45.1697V40.9255H38.0892H48.1692V45.1882V49.4509H46.2689C44.0876 49.4509 43.4597 49.6548 42.8317 50.5814C42.0055 51.8232 41.989 52.0085 41.9394 62.7393L41.8733 72.8029H39.279L36.6846 72.7844L36.2219 72.0431C35.5774 70.9867 34.8338 70.6716 33.7267 70.9681C33.264 71.0979 32.3221 71.4685 31.6446 71.8207C29.926 72.7103 28.3727 73.118 25.8114 73.3775C18.5902 74.1003 12.9718 72.1728 8.77456 67.5395C5.00695 63.3694 2.57784 57.0125 1.90033 49.5436C1.76813 48.1721 1.73508 43.5387 1.78466 35.4582C1.83423 24.0973 1.86728 23.3189 2.18125 21.6323C4.31292 10.6606 10.8071 3.37696 19.6643 2.02402C21.5811 1.72749 24.7208 1.91282 26.555 2.45029ZM75.253 17.9442C76.0131 18.0554 77.7978 18.4816 79.2189 18.8894C82.2429 19.779 82.8873 19.779 83.8623 18.8894C84.4902 18.3148 84.5398 18.3148 86.3245 18.3148H88.1587V26.4695V34.6242H86.2749H84.3746L84.1102 33.5493C82.9369 28.8789 81.0201 26.1915 77.5003 24.3197C75.6165 23.3374 74.5259 23.0594 72.7743 23.1706C71.0062 23.2818 69.7999 23.9119 68.6597 25.3019C67.5195 26.6919 67.1229 27.9707 67.1064 30.1762C67.0898 32.5299 67.4369 33.6419 68.5605 34.9022C69.7668 36.2366 70.9401 36.8667 75.4348 38.5162C79.7807 40.1101 82.1933 41.2962 84.1102 42.7974C85.5643 43.928 87.3325 45.9852 88.1422 47.4864C88.8527 48.8022 89.5468 51.156 89.8111 53.0649C90.0755 54.9182 90.0755 58.7917 89.8277 60.3856C88.5553 68.2808 83.2674 73.3775 76.3436 73.3775C73.7492 73.3775 71.9481 72.8771 68.8745 71.2647C64.512 68.9665 63.7353 69.0407 62.3142 71.7651L61.6698 72.9883H59.8025H57.9187V63.6289V54.2696H59.819C61.2071 54.2696 61.7524 54.3252 61.7854 54.492C63.3057 60.4226 65.8009 63.944 69.8164 65.7788C72.543 67.0205 76.0131 67.2429 77.6656 66.2792C80.9044 64.3702 81.8463 59.5145 79.599 56.2156C78.31 54.3252 77.1037 53.5468 70.9401 50.6556C68.4944 49.5065 65.9001 48.1536 65.1565 47.6717C63.5371 46.5968 61.2236 44.0762 60.4139 42.5565C58.2822 38.4606 57.7865 31.3067 59.3233 26.9329C61.0584 22.0771 65.0904 18.667 70.0643 17.8886C71.0888 17.7403 73.9145 17.7588 75.253 17.9442ZM28.3562 18.6114C29.3477 19.6863 30.1739 22.281 30.7357 26.1174C31.0167 28.1375 31.4793 33.6605 31.4793 35.1431C31.4793 36.1069 31.5289 36.1995 32.57 37.5525L33.6441 38.9795L29.926 39.0351L26.1915 39.0722V45.1697V51.2486L27.563 51.3413C30.8679 51.5452 31.9751 53.6024 31.248 58.1801C30.6531 61.9424 28.7693 63.425 26.3237 62.035C25.5801 61.6088 24.9687 60.7377 24.4894 59.4218C24.1259 58.4396 24.1259 58.4025 24.0763 41.9449C24.0598 32.8635 24.0929 24.3197 24.192 22.9482C24.3572 20.1311 24.6382 19.1303 25.4148 18.389C25.861 17.9627 26.0428 17.9071 26.8855 17.9812C27.6622 18.0554 27.9431 18.1666 28.3562 18.6114ZM121.043 40.6475V47.4122H118.977H116.911V45.7628C116.911 43.687 116.697 42.3897 116.135 41.1479C115.061 38.7757 112.417 37.293 110.12 37.7749C109.161 37.9787 108.864 38.1455 108.368 38.7386C107.592 39.6653 107.492 40.4437 107.492 45.4848V50.1922H110.219H112.946V52.3236V54.4549H110.202H107.476L107.526 60.4226C107.575 65.9826 107.592 66.4645 107.906 67.1317C108.352 68.114 108.914 68.5403 110.252 68.9109L111.376 69.2075L111.425 71.0052L111.475 72.8029H104.601H97.7264L97.776 71.0052L97.8256 69.1889L98.7344 69.0407C99.8911 68.8553 100.337 68.5217 100.767 67.4653C101.13 66.5942 101.13 66.5201 101.13 53.4356V40.2769L100.684 39.2205C100.222 38.0899 99.9738 37.8675 98.9823 37.6822C97.6603 37.4413 97.743 37.5525 97.743 35.625V33.8829H109.393H121.043V40.6475Z" fill="white"/>
<path d="M20.5738 3.97005C20.3424 4.00712 19.6484 4.13685 19.0039 4.24805C11.7992 5.56392 5.89992 12.6066 4.06569 22.0586C3.58648 24.5977 3.38818 27.4148 3.38818 32.252V36.459L4.06569 36.1996C5.27199 35.7177 7.91592 35.9772 8.13074 36.5888C8.24641 36.9409 7.17231 39.1278 6.13127 40.6846L5.23894 42.019L6.46176 47.0786C8.09769 53.7321 9.651 59.8852 9.75015 59.9964C9.79972 60.0335 9.83277 59.5701 9.83277 58.9585C9.83277 55.9376 10.5599 47.82 11.1547 44.2616C11.3365 43.1866 11.4852 42.2229 11.4852 42.1302C11.4852 42.019 11.1052 41.3518 10.6425 40.6476C9.651 39.1093 8.62648 36.9038 8.74215 36.5702C8.94045 35.9586 11.5018 35.7177 12.6915 36.181L13.3029 36.4405V28.1005C13.3029 23.4857 13.3856 18.9821 13.4847 17.9813C14.1953 10.7162 17.0705 7.19485 22.3088 7.19485C25.5311 7.21339 28.4395 9.34472 30.5381 13.2553C32.6698 17.2585 34.2726 23.8193 34.818 30.8434L35.0162 33.5122H38.2881H41.56V18.9635V4.41485H40.0232H38.4864L38.2881 5.23032C38.0733 6.15699 37.2966 7.25045 36.5861 7.67672C35.9747 8.02886 34.4048 8.01032 33.2812 7.63965C32.7854 7.49139 31.3808 6.82419 30.158 6.17552C27.3323 4.67432 25.2667 4.06272 22.8046 3.95152C21.8131 3.91445 20.8051 3.91445 20.5738 3.97005ZM10.4607 15.2569C10.1963 17.1102 10.2128 23.1335 10.4772 24.6162C10.5929 25.2834 10.8738 26.4695 11.1052 27.2479L11.5183 28.675L11.0391 29.3793C9.96497 30.9546 9.18831 32.9192 8.79172 35.1432C8.67605 35.7918 8.51081 36.2922 8.42818 36.2737C8.32904 36.2737 8.09769 35.5138 7.8994 34.6057C7.46976 32.6412 6.61048 30.5654 5.78425 29.472L5.17284 28.6936L5.53638 27.3406C6.11474 25.2278 7.635 20.4647 8.31251 18.7226C8.9735 16.9805 10.4938 13.7927 10.5764 13.9039C10.6094 13.941 10.5599 14.5526 10.4607 15.2569Z" fill="white"/>
<path d="M69.7335 19.5195C67.073 20.057 64.4291 21.6879 62.727 23.8193C61.5868 25.2278 60.4962 27.7669 60.1327 29.8055C59.9179 31.0102 59.8848 31.9369 59.9509 33.8829C60.0996 38.1455 60.9589 40.7031 63.074 43.2422L64.2142 44.6137L64.7761 44.3357C65.4536 44.0206 66.5112 44.0206 67.42 44.3357C67.9488 44.5025 68.2462 44.5025 68.9072 44.3171C69.3534 44.1874 70.1301 44.0762 70.6423 44.0577H71.5512L69.8161 43.3534C66.2963 41.9263 64.1151 40.4807 62.4792 38.5162C61.5538 37.3857 61.5538 37.3671 61.5538 36.2366C61.5538 34.235 62.3139 30.065 63.1071 27.6742L63.355 26.9329L63.3715 28.0449C63.4045 30.9546 64.1481 33.4195 65.404 34.9393C66.0154 35.6621 66.1807 36.0327 66.3294 36.8853C66.5442 38.2567 67.0234 39.2761 67.9653 40.4066C68.775 41.3703 70.791 42.9642 72.2617 43.7982C72.7575 44.0577 73.1045 44.3357 73.0549 44.4098C72.9888 44.4654 73.5341 44.8546 74.2612 45.2809C76.6242 46.6709 78.2106 48.376 78.7559 50.1366C78.8716 50.5629 79.136 50.8409 79.6482 51.1189C81.9451 52.3606 83.9777 56.7901 84.3412 61.3493L84.4569 62.8876L84.8204 61.5902C85.7127 58.4766 85.8945 54.7514 85.2666 51.99C85.1013 51.2857 84.6221 49.9513 84.209 49.0246L83.4489 47.3196L82.3417 46.9118C81.7303 46.6894 79.6152 46.1149 77.6322 45.6515C73.0549 44.5581 73.2697 44.6322 73.782 44.4098C74.5421 44.0947 76.9547 44.0206 77.7479 44.2986C78.3758 44.521 78.6072 44.521 79.2351 44.2986C79.9622 44.0577 82.193 44.0947 83.201 44.3727L83.6141 44.4839L83.201 44.0762C82.3087 43.2237 78.9542 41.6113 74.9387 40.0915C70.2457 38.3123 68.8411 37.571 67.6348 36.2551C64.8422 33.1971 64.9413 26.7475 67.8331 23.8193C72.2287 19.3898 80.4414 22.0215 84.0438 29.0086C84.5395 29.9909 85.3492 32.3446 85.3492 32.8635C85.3492 33.0674 85.531 33.1415 86.0928 33.1415H86.8364V26.4695V19.7975H85.9276C85.184 19.7975 84.903 19.8902 84.2586 20.3906C83.5645 20.9466 83.3993 21.0022 82.2426 21.0022C81.2841 20.9837 80.4249 20.8168 78.822 20.2979C75.5501 19.26 72.3113 18.982 69.7335 19.5195Z" fill="white"/>
<path d="M98.7673 35.6806C98.8169 36.3478 98.85 36.3849 99.4779 36.4776C100.932 36.7 101.659 37.6822 102.023 39.9062C102.122 40.5364 102.204 43.409 102.204 46.8006V52.6201L102.551 52.3977C102.766 52.2865 103.179 52.2494 103.576 52.305L104.22 52.4348L104.105 51.7305C103.973 50.878 103.361 49.3397 102.915 48.7281L102.585 48.2833L103.047 47.0601C103.526 45.7628 104.187 42.5194 104.187 41.426C104.187 41.0553 104.27 40.7032 104.353 40.6476C104.452 40.5734 104.518 40.7773 104.518 41.148C104.518 42.6862 105.344 46.6524 105.906 47.7644C106.104 48.1536 106.071 48.2833 105.559 49.1173C105.262 49.6362 104.898 50.5073 104.749 51.1004C104.452 52.3236 103.675 54.1028 103.031 55.0109L102.568 55.6781L103.047 57.272C103.526 58.8844 104.187 62.6652 104.187 63.8143C104.187 64.1664 104.254 64.4815 104.32 64.5371C104.386 64.5741 104.551 63.7031 104.667 62.5911C104.898 60.33 105.328 58.1431 105.823 56.6789L106.154 55.6967L105.691 55.0295C105.427 54.6588 105.047 54.0101 104.848 53.5653C104.353 52.4904 104.518 52.3236 106.055 52.3421C107.261 52.3792 107.525 52.3792 109.558 52.3421C110.202 52.3236 110.996 52.3792 111.343 52.4533L111.954 52.583V51.8417V51.1189H109.227H106.501V45.6701C106.501 39.6468 106.567 39.1278 107.525 38.0158C108.319 37.1077 109.294 36.7556 111.045 36.7556C115.358 36.7741 117.903 39.795 117.903 44.9102V46.3188L118.944 46.2632L119.968 46.2076L120.018 40.592L120.051 34.9949H109.393H98.7178L98.7673 35.6806Z" fill="white"/>
<path d="M36.2874 85.6836C32.0075 87.0366 27.9755 93.3008 27.1658 99.8802C26.6866 103.772 28.1903 107.275 30.95 108.721C31.8092 109.184 32.0571 109.221 33.7922 109.202C37.2128 109.184 39.6915 108.072 42.3519 105.366C42.8477 104.866 43.2938 104.532 43.3599 104.625C43.426 104.699 43.6739 105.07 43.9218 105.44C44.4505 106.274 45.5577 106.904 46.45 106.904C47.9868 106.904 49.6393 105.403 50.3498 103.402C50.796 102.104 50.8456 99.4539 50.449 98.2307C50.3002 97.8044 50.2176 97.4523 50.2672 97.4523C50.449 97.4523 51.7875 98.6014 52.3493 99.2686L52.9772 99.9914L52.7955 101.178C52.6798 101.826 52.5806 103.124 52.5641 104.032C52.5476 105.922 52.7955 106.626 53.5556 106.83C54.4479 107.09 54.7288 106.719 56.2161 103.235C56.9762 101.437 57.6537 99.9172 57.6867 99.8802C57.885 99.6578 57.8685 100.177 57.5711 102.345C57.2406 104.94 57.2901 106.015 57.7859 106.571C58.3477 107.201 59.4053 106.849 59.7854 105.904C59.9176 105.588 60.4463 104.124 60.9751 102.642C61.4874 101.178 61.9336 99.9358 61.9666 99.8987C61.9997 99.8616 62.0162 101.029 62.0162 102.475C61.9831 105.385 62.1814 106.293 62.892 106.719C63.3712 107.016 64.4949 106.83 65.3707 106.33C65.7507 106.126 66.0647 105.978 66.0978 106.015C66.1308 106.052 65.8664 106.738 65.5029 107.553C63.8835 111.241 63.7513 114.225 65.1063 115.745C66.4117 117.209 68.2625 115.874 69.3035 112.724C69.7332 111.445 70.1463 108.869 70.1463 107.442C70.1463 106.83 70.1793 106.348 70.2124 106.348C70.2454 106.348 70.8899 106.478 71.65 106.645C73.2364 106.978 73.9635 106.904 75.2028 106.237L76.0951 105.755L76.5909 106.237C77.698 107.275 79.4662 106.997 81.0195 105.514L81.5317 105.032L81.7631 105.551C82.5563 107.238 84.2087 107.275 85.8777 105.626C86.5883 104.921 86.6709 104.921 86.6709 105.514C86.6709 106.089 87.3484 106.904 87.8276 106.904C88.5547 106.904 88.8521 106.441 90.3724 103.049L91.9257 99.5836L91.8431 102.03C91.7274 104.754 91.9092 105.866 92.5536 106.552C93.0659 107.09 93.8756 106.941 95.462 106.052L96.6187 105.385L97.1475 105.959C98.172 107.053 99.0808 107.164 100.469 106.348L101.427 105.792L101.312 106.367C101.246 106.756 100.75 107.497 99.841 108.572C98.3538 110.333 97.4614 111.723 96.8004 113.317C96.2221 114.744 96.3047 116.282 96.9987 117.098C98.2711 118.58 100.865 118.173 102.006 116.338C102.716 115.17 103.03 113.966 103.295 111.352C103.427 110.074 103.625 108.832 103.708 108.572C103.807 108.313 104.484 107.627 105.228 107.053C105.988 106.46 106.947 105.57 107.393 105.07L108.186 104.18L107.971 102.994C107.872 102.345 107.74 101.752 107.674 101.678C107.624 101.604 107.128 102.178 106.583 102.957C105.575 104.402 103.989 105.978 103.889 105.644C103.856 105.533 104.187 103.216 104.6 100.492C105.261 96.1364 105.327 95.5063 105.112 95.2654C104.782 94.8762 103.807 95.1171 103.179 95.7472C102.716 96.2106 102.617 96.5442 102.022 99.5651C101.593 101.752 101.229 103.161 100.965 103.68C100.469 104.625 99.874 104.903 99.3948 104.402C98.9156 103.92 98.9652 102.512 99.5766 99.213C100.32 95.1727 100.32 95.3024 99.8905 95.043C99.3948 94.7464 98.5355 94.9503 98.1059 95.4692C97.4119 96.3032 96.7509 98.7867 96.3378 102.271C96.2551 102.975 96.1395 103.179 95.6437 103.531C95.3132 103.772 94.834 104.013 94.5862 104.069C94.1896 104.161 94.0904 104.087 93.9417 103.68C93.6938 102.92 93.7434 101.696 94.1235 99.1203C94.5035 96.5071 94.4374 95.7287 93.8591 95.3024C93.3303 94.9132 92.3884 95.0986 91.8761 95.6731C91.5622 96.0252 90.0584 99.1759 89.7775 100.047C89.7279 100.195 89.6453 100.269 89.5792 100.195C89.5131 100.14 89.5462 99.25 89.6618 98.2307C89.761 97.2114 89.8105 96.1735 89.7444 95.8955C89.5296 94.9318 88.2572 94.7835 87.745 95.6731C87.4806 96.1179 86.8361 99.7875 86.8361 100.807C86.8361 101.437 85.1506 103.568 84.3574 103.939C83.2338 104.458 83.1016 103.642 83.7791 99.8616C84.407 96.2662 84.3409 95.7843 83.1842 95.7843C82.7711 95.7843 82.4075 95.636 82.077 95.321C81.7961 95.0615 81.4326 94.8576 81.2673 94.8576C80.4411 94.8576 79.3174 95.5063 78.3094 96.5812C77.0205 97.9342 75.8638 100.344 75.5663 102.308C75.3681 103.55 75.3681 103.55 74.6079 103.92C73.3025 104.551 71.303 104.921 71.303 104.532C71.303 104.458 71.6996 104.124 72.1953 103.791C74.1618 102.475 75.2028 100.51 75.0706 98.3048C74.9384 96.0067 73.98 94.9503 71.964 94.9503C70.642 94.9503 69.8323 95.4507 69.1218 96.6924C68.6095 97.6006 67.8328 100.14 67.8328 100.9C67.8328 101.734 65.5029 104.124 64.6601 104.124C64.4783 104.124 64.3131 103.883 64.1809 103.42C63.9991 102.697 63.9991 102.605 64.561 97.8786C64.8088 95.8028 64.6766 95.2283 63.9165 94.9688C62.9911 94.6723 62.198 95.5619 60.6116 98.7311C60.182 99.5836 59.8019 100.195 59.7688 100.084C59.7523 99.9914 59.8349 99.4168 59.9671 98.8052C60.0993 98.2122 60.2646 97.267 60.3307 96.6924C60.4298 95.7843 60.3968 95.599 60.0828 95.2468C59.3061 94.3758 58.3808 94.9688 57.191 97.1372C56.7944 97.8786 56.2821 98.8608 56.0839 99.3427C55.869 99.8431 55.6377 100.232 55.5551 100.232C55.4724 100.232 55.4394 100.121 55.489 99.9914C55.7038 99.3798 55.9517 96.8963 55.9021 95.9696L55.8525 94.9503L55.1585 94.8947C54.2661 94.8206 53.9026 95.2283 53.6382 96.5442C53.5225 97.1002 53.4069 97.6562 53.3573 97.7859C53.3077 97.9527 52.9938 97.7303 52.3989 97.1187C49.3583 94.0051 45.2272 94.5055 43.5417 98.1936C43.3599 98.6014 43.1286 99.5651 43.0129 100.325L42.8146 101.734L40.8317 103.309C37.5598 105.904 35.8908 106.663 33.7591 106.497C30.1568 106.2 29.1488 102.104 31.1978 95.9882C33.0486 90.4467 36.2874 87.259 38.8322 88.4451C40.5838 89.2791 40.4516 92.5595 38.5843 94.3387C37.8077 95.0986 36.9814 95.4136 35.7421 95.4136C35.2463 95.4136 34.7671 95.5063 34.6515 95.636C34.5358 95.7658 34.4532 96.2662 34.4532 96.7666C34.4532 97.6191 34.4697 97.6747 35.0646 97.9527C38.1877 99.4168 42.9633 94.2275 42.4511 89.9463C42.2362 88.093 41.5257 86.8512 40.2202 86.0543C39.1627 85.4242 37.6094 85.2759 36.2874 85.6836ZM72.6911 97.3782C73.1207 97.8415 73.0216 99.2315 72.4763 100.51C72.0301 101.604 70.5263 103.383 70.0802 103.383C69.7993 103.383 70.0306 100.788 70.4768 99.2315C70.6751 98.5272 71.0056 97.7674 71.2204 97.5264C71.6831 97.0075 72.311 96.9519 72.6911 97.3782ZM81.7135 97.1372C81.7135 97.7303 80.4907 102.883 80.1932 103.531C79.6644 104.68 79.02 104.977 78.5408 104.31C77.5493 102.938 79.2348 98.0454 80.9534 97.267C81.3004 97.1002 81.7135 97.0446 81.7135 97.1372ZM48.2677 97.7488C48.9287 98.8608 48.8296 101.511 48.086 103.327C47.458 104.866 46.3509 105.125 45.6899 103.883C45.2768 103.124 45.2437 101.048 45.6403 99.6948C46.2187 97.6562 47.6233 96.6183 48.2677 97.7488ZM67.618 109.629C67.5189 112.427 67.3206 113.576 66.924 113.576C66.5935 113.576 66.1804 112.835 66.1804 112.26C66.1804 111.297 67.3536 106.904 67.618 106.904C67.6676 106.904 67.6676 108.128 67.618 109.629ZM101.113 111.019C100.948 112.557 100.238 114.874 99.7914 115.374C99.5105 115.671 99.2461 115.8 98.9321 115.763C98.5355 115.708 98.486 115.634 98.519 115.078C98.5521 114.225 99.5601 111.982 100.403 110.926C100.766 110.444 101.113 110.055 101.146 110.055C101.196 110.055 101.179 110.5 101.113 111.019Z" fill="white"/>
</svg>
