<?xml version="1.0" standalone="no"?>
<!DOCTYPE svg PUBLIC "-//W3C//DTD SVG 20010904//EN"
 "http://www.w3.org/TR/2001/REC-SVG-20010904/DTD/svg10.dtd">
<svg version="1.0" xmlns="http://www.w3.org/2000/svg"
 width="83.000000pt" height="55.000000pt" viewBox="0 0 83.000000 55.000000"
 preserveAspectRatio="xMidYMid meet">
<metadata>
Created by potrace 1.16, written by Peter Selinger 2001-2019
</metadata>
<g transform="translate(0.000000,55.000000) scale(0.004146,-0.005484)"
fill="#000000" stroke="none">
<path d="M8609 8824 c-465 -84 -853 -430 -1015 -907 -44 -129 -72 -270 -84
-420 -12 -157 -12 -950 0 -1217 23 -516 158 -920 435 -1302 81 -112 299 -328
415 -411 111 -79 317 -184 445 -226 329 -108 688 -99 1005 26 210 83 280 83
369 -2 l56 -53 175 -3 175 -4 1 550 c0 590 1 599 52 648 40 38 73 47 181 47
l98 0 6 -257 c4 -141 7 -302 7 -357 l0 -101 151 -197 151 -198 206 0 207 1 35
71 c25 51 45 78 67 91 30 17 36 18 84 4 28 -9 92 -40 142 -70 160 -96 316
-133 527 -124 235 10 424 93 591 258 201 199 300 473 286 793 -7 162 -28 281
-72 413 -140 417 -431 686 -960 883 -286 107 -355 166 -355 306 0 100 50 184
130 218 188 78 335 -32 404 -304 l22 -86 149 -140 c82 -76 177 -165 212 -196
l63 -58 104 0 c57 0 124 3 150 6 l46 7 0 486 0 486 -173 230 -174 230 -167 3
-168 2 -39 -35 c-49 -44 -67 -44 -221 -5 -166 41 -262 53 -423 53 -490 -1
-846 -275 -936 -718 -17 -87 -15 -303 5 -415 54 -308 212 -584 454 -796 143
-125 230 -176 447 -264 296 -120 385 -185 385 -280 0 -102 -98 -170 -244 -170
-131 1 -275 73 -381 192 -64 73 -182 252 -250 381 l-57 107 -176 0 -177 0 3
104 4 104 -38 43 c-22 24 -80 89 -129 144 -50 55 -102 114 -116 131 l-26 32
-2 847 -2 848 -118 131 c-64 72 -174 197 -244 277 l-127 146 -142 6 c-79 4
-199 5 -268 2 -69 -3 -128 -5 -131 -5 -3 0 -9 -26 -12 -57 -3 -32 -10 -70 -16
-85 -16 -43 -55 -36 -178 28 -127 66 -256 111 -373 130 -107 17 -351 17 -451
-2z m518 -118 c50 -14 167 -59 258 -101 99 -45 186 -78 214 -82 44 -5 49 -3
73 26 23 27 48 104 48 146 0 13 33 15 205 15 l205 0 0 -890 0 -890 -304 0
-303 0 -7 31 c-3 17 -6 61 -6 98 0 36 -7 124 -15 195 -65 551 -237 932 -474
1049 -62 30 -72 32 -176 32 -104 0 -114 -2 -177 -33 -138 -68 -210 -203 -238
-447 -6 -54 -10 -435 -10 -955 0 -921 3 -982 50 -1150 28 -100 98 -242 155
-312 55 -68 147 -132 223 -154 69 -20 208 -20 297 1 134 31 230 102 288 213
45 85 65 167 73 299 12 175 -28 300 -111 349 -34 20 -55 24 -118 24 l-77 0 0
230 0 230 609 0 c478 0 610 -3 612 -12 2 -7 4 -109 4 -225 l0 -213 -125 -3
c-147 -3 -185 -18 -219 -90 -36 -75 -41 -155 -41 -669 l0 -498 -157 0 -158 0
-24 36 c-54 79 -116 81 -281 11 -58 -25 -123 -50 -145 -55 -130 -34 -488 -43
-638 -17 -561 98 -933 556 -1012 1246 -14 114 -15 242 -12 785 4 719 3 708 76
934 142 442 492 772 906 853 125 25 131 25 290 22 123 -3 166 -8 242 -29z
m3003 -841 c47 -8 132 -28 190 -45 148 -42 209 -40 265 10 16 15 42 19 138 22
l117 3 0 -437 0 -438 -114 0 -114 0 -27 88 c-44 142 -106 251 -185 326 -124
117 -286 194 -430 203 -250 17 -430 -174 -406 -430 9 -95 38 -156 102 -217 69
-66 133 -94 426 -190 320 -106 468 -179 596 -295 111 -100 200 -251 236 -396
70 -287 26 -608 -113 -822 -153 -234 -394 -361 -686 -361 -142 0 -246 22 -381
82 -49 22 -126 56 -172 77 -45 20 -106 39 -136 42 -50 5 -55 4 -93 -31 -23
-20 -54 -61 -69 -91 l-29 -55 -118 0 -117 0 2 503 3 502 114 0 114 0 13 -54
c22 -82 58 -165 111 -253 142 -235 387 -371 673 -372 88 -1 101 2 162 32 77
38 130 92 167 171 22 48 26 69 26 151 -1 84 -4 102 -30 155 -37 77 -110 149
-205 205 -41 24 -185 90 -320 145 -386 161 -461 204 -587 339 -102 109 -164
239 -195 411 -20 109 -16 365 6 450 86 324 344 540 701 585 86 11 252 4 365
-15z m-2920 -15 c59 -42 116 -190 150 -388 22 -129 50 -413 50 -507 0 -59 1
-61 65 -135 35 -41 64 -78 65 -82 0 -5 -101 -8 -225 -8 l-225 0 0 -330 0 -330
79 0 c66 0 87 -4 132 -28 73 -37 109 -104 109 -201 0 -166 -51 -306 -125 -348
-100 -56 -220 -9 -283 112 -25 48 -26 60 -33 266 -10 321 -10 1509 1 1699 5
91 14 182 21 204 15 45 59 92 92 99 38 8 99 -3 127 -23z"/>
<path d="M8655 8616 c-397 -77 -717 -378 -860 -809 -65 -197 -85 -360 -85
-711 l0 -218 23 6 c92 26 119 28 192 11 58 -12 75 -20 75 -33 0 -24 -82 -165
-134 -232 l-43 -55 34 -125 c78 -288 226 -816 233 -828 3 -7 12 76 19 185 16
249 34 415 67 615 l26 156 -41 55 c-52 68 -131 206 -131 228 0 16 37 31 112
44 33 6 107 -4 151 -20 16 -7 17 18 17 433 0 242 5 486 10 543 22 217 80 368
179 462 103 98 205 132 381 125 89 -4 115 -9 170 -34 71 -32 165 -102 215
-161 181 -215 304 -596 348 -1079 l12 -139 198 -3 197 -2 0 787 0 788 -93 -3
-93 -3 -12 -42 c-14 -53 -60 -109 -108 -132 -29 -13 -50 -16 -98 -11 -90 10
-127 23 -276 92 -205 95 -283 115 -465 120 -100 2 -173 -1 -220 -10z m-517
-601 c-15 -98 -15 -416 0 -490 6 -33 24 -99 38 -146 l26 -86 -37 -48 c-20 -27
-47 -70 -61 -96 -27 -54 -74 -209 -74 -245 0 -13 -6 -24 -12 -24 -8 0 -22 37
-35 91 -26 108 -69 204 -124 277 l-40 53 32 97 c65 199 133 380 175 471 50
108 114 224 119 219 2 -2 -1 -35 -7 -73z"/>
<path d="M11777 7799 c-304 -34 -546 -235 -624 -519 -27 -97 -24 -365 5 -471
36 -133 121 -274 205 -340 32 -26 35 -27 84 -14 43 11 62 11 115 0 54 -11 72
-11 128 2 36 8 82 13 103 10 61 -8 42 6 -43 32 -102 31 -266 109 -344 165 -33
24 -88 72 -120 106 l-59 62 7 96 c7 114 33 241 73 367 l29 90 7 -91 c13 -163
51 -266 126 -340 34 -33 43 -50 50 -96 14 -83 34 -123 98 -190 63 -66 134
-117 241 -176 38 -20 69 -41 70 -46 0 -4 31 -24 67 -42 37 -19 86 -48 109 -64
63 -43 142 -133 162 -185 14 -38 26 -51 64 -70 137 -70 258 -304 277 -537 3
-43 9 -78 13 -78 11 0 47 142 61 239 14 99 7 250 -16 336 -26 97 -103 245
-134 257 -45 17 -239 64 -408 98 -90 18 -163 37 -163 41 0 22 201 30 262 10
28 -9 47 -8 98 5 62 16 94 15 205 -2 l40 -7 -25 20 c-81 64 -197 113 -530 225
-265 89 -341 127 -421 209 -79 80 -101 140 -107 287 -6 153 19 241 95 337 121
154 407 195 639 94 199 -88 367 -271 431 -470 l28 -89 43 0 42 0 0 360 0 360
-59 0 c-41 0 -62 -5 -72 -16 -48 -58 -150 -68 -294 -28 -222 60 -404 81 -558
63z"/>
<path d="M13360 6926 c0 -172 -5 -161 81 -172 64 -9 105 -41 120 -97 18 -62
18 -1315 0 -1377 -21 -75 -37 -89 -121 -103 l-75 -13 -3 -152 -3 -152 106
-140 106 -140 479 0 480 0 0 153 0 152 -110 144 -110 143 0 199 0 199 175 0
175 0 0 139 0 140 -114 139 c-249 305 -236 285 -236 355 0 84 15 131 51 161
53 45 117 27 146 -41 7 -19 16 -82 19 -139 l5 -105 101 -134 101 -135 199 0
198 0 0 400 0 400 -122 165 -123 164 -762 1 -763 0 0 -154z m1470 -271 l0
-365 -125 0 -125 0 0 98 c0 201 -60 315 -204 389 -40 21 -69 27 -136 30 -108
5 -162 -18 -200 -87 -25 -44 -25 -49 -28 -312 l-3 -268 165 0 166 0 0 -115 0
-115 -166 0 -165 0 3 -322 c3 -299 4 -326 23 -363 25 -50 70 -80 143 -96 31
-7 63 -17 70 -22 8 -6 12 -39 12 -98 l0 -89 -420 0 -420 0 0 95 0 94 38 6 c95
16 116 27 142 80 l25 50 0 715 0 715 -26 55 c-28 61 -50 76 -124 88 l-50 7 -3
98 -3 97 706 0 705 0 0 -365z"/>
<path d="M13480 6921 l0 -38 49 -7 c57 -8 94 -34 120 -84 35 -70 41 -135 41
-464 0 -301 1 -320 18 -313 35 15 67 16 87 2 20 -15 20 -15 -2 -59 -11 -23
-34 -60 -50 -81 l-29 -38 28 -84 c16 -47 38 -142 49 -212 11 -71 23 -144 26
-163 5 -28 9 -15 19 65 17 134 41 245 71 328 25 69 25 69 5 90 -25 28 -82 121
-82 135 0 19 70 35 119 27 25 -4 66 -6 91 -5 85 6 145 5 193 -2 l47 -8 0 40 0
40 -166 0 -165 0 3 308 3 309 30 49 c38 60 90 91 176 103 137 18 267 -19 357
-103 82 -77 122 -182 122 -323 l0 -83 65 0 65 0 -2 303 -3 302 -642 3 -643 2
0 -39z m361 -381 c13 -95 44 -211 68 -258 l19 -37 -28 -41 c-28 -40 -70 -148
-70 -179 0 -8 -4 -15 -10 -15 -5 0 -10 8 -10 18 0 38 -32 122 -64 170 -30 45
-32 52 -20 73 25 45 62 175 74 259 6 47 14 96 18 110 l6 25 3 -25 c2 -14 8
-59 14 -100z"/>
<path d="M9672 4210 c-178 -63 -362 -269 -453 -504 -56 -146 -72 -226 -67
-350 3 -101 7 -118 37 -183 37 -79 108 -156 177 -191 65 -33 149 -44 253 -32
177 20 315 82 443 199 l67 62 15 -29 c20 -39 80 -90 114 -97 15 -4 35 -8 44
-10 10 -1 37 1 60 6 159 36 255 244 203 442 -8 32 -15 60 -15 63 0 8 112 -80
138 -109 22 -24 23 -28 13 -102 -6 -42 -11 -114 -11 -159 0 -69 4 -88 21 -110
23 -29 72 -36 102 -13 9 6 53 89 98 182 44 94 83 172 85 174 12 12 12 -14 -1
-99 -20 -127 -19 -219 1 -248 21 -31 83 -31 111 1 11 12 48 95 83 185 35 89
66 162 69 162 3 0 6 -69 6 -154 0 -141 2 -157 21 -183 30 -40 95 -43 169 -9
30 14 55 24 55 22 0 -2 -20 -46 -44 -98 -64 -136 -80 -197 -73 -284 6 -76 26
-128 61 -156 29 -24 93 -23 134 2 86 52 162 261 162 442 l0 71 58 -9 c114 -17
192 -11 252 18 53 26 55 27 75 9 68 -62 168 -53 272 26 29 22 37 25 41 13 3
-8 20 -30 38 -47 26 -27 40 -33 76 -33 44 0 129 40 157 74 18 21 31 20 31 -3
0 -34 39 -71 73 -71 18 0 38 4 46 9 8 5 56 92 107 192 l93 184 -6 -121 c-7
-138 6 -210 42 -244 21 -19 31 -22 69 -17 25 4 77 22 115 41 l68 35 24 -25
c33 -36 72 -54 114 -54 40 0 99 22 129 48 18 17 19 16 13 -22 -5 -32 -22 -55
-90 -125 -88 -90 -142 -165 -184 -258 -33 -71 -29 -149 8 -189 70 -76 214 -70
291 12 51 55 77 132 98 286 10 78 22 151 26 161 3 10 33 36 65 58 81 55 176
135 190 160 12 23 -6 149 -21 149 -5 0 -24 -22 -44 -49 -40 -55 -161 -171
-177 -171 -6 0 -9 10 -6 23 3 12 24 136 48 276 42 248 43 254 24 267 -38 28
-122 -10 -143 -63 -6 -16 -25 -95 -43 -177 -34 -163 -50 -209 -82 -243 -44
-49 -97 -14 -97 63 0 22 14 110 31 195 41 200 42 230 8 242 -46 17 -94 -16
-128 -87 -31 -64 -58 -179 -68 -285 -6 -62 -7 -64 -52 -92 -59 -38 -85 -38
-101 1 -14 34 -10 92 16 256 19 119 14 167 -22 191 -21 13 -31 14 -64 4 -49
-14 -73 -46 -140 -179 -29 -57 -54 -101 -57 -99 -2 3 0 40 6 82 18 127 15 172
-13 190 -30 20 -70 11 -95 -21 -18 -23 -45 -140 -57 -251 -6 -56 -11 -67 -56
-118 -52 -57 -93 -85 -126 -85 -40 0 -41 40 -7 210 27 138 31 210 13 228 -7 7
-30 12 -52 12 -29 0 -47 7 -67 26 -27 26 -30 26 -76 15 -142 -35 -270 -195
-309 -384 -9 -42 -22 -77 -32 -85 -30 -23 -148 -53 -193 -50 l-44 3 50 29 c66
39 136 110 163 167 25 50 31 165 11 216 -26 68 -88 106 -174 106 -95 0 -152
-41 -199 -143 -25 -55 -56 -160 -56 -191 0 -9 -19 -37 -42 -62 -77 -83 -157
-120 -172 -81 -11 28 -6 157 9 249 16 98 19 183 7 202 -16 25 -61 34 -91 18
-30 -15 -94 -106 -157 -220 -20 -36 -39 -64 -41 -61 -3 2 4 45 16 94 22 92 26
149 13 168 -16 25 -49 34 -81 23 -37 -13 -81 -71 -146 -192 -26 -48 -49 -86
-52 -84 -2 3 3 55 12 117 20 137 17 157 -30 166 -51 9 -81 -14 -100 -78 -8
-28 -15 -60 -15 -70 0 -26 -12 -22 -45 12 -39 40 -110 85 -165 105 -67 24
-176 22 -238 -5 -99 -43 -182 -167 -182 -273 0 -24 -6 -50 -12 -58 -19 -23
-234 -172 -293 -203 -81 -44 -147 -58 -244 -54 -108 4 -151 28 -196 109 -28
51 -30 60 -29 164 1 89 6 127 28 200 53 176 139 328 235 418 65 61 121 86 189
87 100 0 142 -44 142 -147 -1 -142 -119 -243 -284 -243 -49 0 -56 -9 -56 -71
0 -31 5 -42 26 -56 34 -22 135 -21 189 1 142 60 275 247 275 389 0 107 -64
213 -155 256 -58 27 -177 28 -253 1z m2222 -606 c8 -3 20 -21 26 -40 23 -68
-41 -206 -123 -265 -22 -16 -44 -29 -49 -29 -15 0 -8 95 13 176 24 93 46 134
80 151 28 15 32 15 53 7z m556 -3 c0 -18 -61 -276 -72 -306 -20 -52 -57 -95
-83 -95 -84 0 -65 186 32 324 36 51 123 105 123 77z m-2034 -19 c26 -17 38
-60 38 -132 0 -188 -95 -309 -175 -224 -22 24 -24 33 -23 122 1 106 18 162 67
215 26 27 69 36 93 19z m1183 -659 c-4 -82 -12 -161 -18 -176 -14 -36 -41 -33
-59 7 -12 24 -12 39 6 115 22 94 59 201 70 201 4 0 4 -66 1 -147z m2026 -75
c-12 -94 -48 -200 -79 -231 -21 -21 -72 -22 -80 -2 -6 16 12 72 39 126 27 53
105 159 116 159 7 0 9 -18 4 -52z"/>
</g>
</svg>
