<?xml version="1.0" standalone="no"?>
<!DOCTYPE svg PUBLIC "-//W3C//DTD SVG 20010904//EN"
 "http://www.w3.org/TR/2001/REC-SVG-20010904/DTD/svg10.dtd">
<svg version="1.0" xmlns="http://www.w3.org/2000/svg"
 width="250.000000pt" height="100.000000pt" viewBox="0 0 500.000000 250.000000"
 preserveAspectRatio="xMidYMid meet">
<metadata>
Created by potrace 1.16, written by Peter Selinger 2001-2019
</metadata>
<g transform="translate(0.000000,250.000000) scale(0.025000,-0.025000)"
fill="#fff" stroke="none">
<path d="M8695 8824 c-300 -34 -562 -160 -770 -369 -214 -215 -349 -482 -407
-806 -22 -121 -23 -142 -23 -794 0 -698 3 -756 46 -982 123 -643 504 -1184
1019 -1448 398 -203 841 -228 1245 -69 61 23 141 48 179 54 66 10 72 10 123
-15 29 -15 68 -44 85 -66 l31 -39 174 0 173 0 0 533 c0 323 4 549 11 576 23
103 71 133 222 139 l107 5 0 -356 0 -356 98 -128 c53 -71 124 -163 157 -206
l59 -77 203 0 202 0 30 63 c71 149 111 151 329 23 104 -60 195 -89 342 -107
292 -35 552 57 760 270 105 108 171 215 221 364 l39 112 0 -152 0 -152 105
-140 105 -141 480 0 480 0 0 153 0 152 -110 144 -110 144 0 198 0 199 129 0
c70 0 149 3 175 6 l46 7 0 133 0 134 -175 215 -175 214 0 73 c0 81 24 149 58
167 35 19 86 13 110 -11 33 -36 42 -73 42 -176 l0 -97 108 -142 107 -143 198
0 197 0 0 400 0 400 -122 165 -123 165 -762 0 -763 0 0 -154 0 -155 58 -11
c84 -16 106 -27 128 -63 18 -31 19 -57 19 -727 0 -683 0 -696 -21 -730 -24
-42 -51 -56 -127 -65 l-58 -7 8 64 c15 119 8 344 -15 463 -55 282 -159 481
-352 675 -164 165 -366 286 -660 395 -289 107 -360 174 -348 329 12 140 97
216 244 216 137 0 231 -106 287 -325 l22 -87 207 -194 207 -194 155 0 156 0 0
488 0 489 -172 231 -173 231 -169 1 -168 0 -34 -30 c-19 -16 -46 -33 -60 -36
-15 -4 -83 8 -172 29 -316 78 -566 74 -799 -11 -393 -144 -607 -504 -564 -949
38 -392 214 -715 526 -965 109 -87 206 -140 395 -218 206 -84 281 -124 334
-178 121 -125 -11 -286 -222 -270 -122 10 -230 65 -336 172 -66 66 -198 262
-276 409 l-52 97 -179 0 -179 0 0 113 0 114 -117 129 c-65 72 -133 147 -150
167 l-33 38 0 847 -1 847 -185 210 c-102 116 -213 243 -247 282 l-62 72 -271
1 -271 0 -6 -63 c-8 -82 -23 -117 -53 -117 -12 0 -85 31 -162 70 -153 77 -271
113 -417 130 -85 9 -223 11 -290 4z m407 -128 c53 -13 156 -52 230 -86 196
-91 225 -101 277 -98 42 3 47 6 68 43 12 22 25 64 29 92 l6 53 204 0 204 0 0
-890 0 -890 -310 0 -310 0 0 93 c0 250 -72 629 -162 856 -128 319 -312 476
-538 457 -180 -15 -305 -131 -354 -331 -33 -130 -36 -234 -36 -1108 0 -981 1
-1001 67 -1199 100 -303 284 -453 533 -434 215 16 351 97 424 251 81 172 86
459 8 570 -41 58 -81 78 -173 83 l-79 5 0 228 0 229 610 0 610 0 0 -230 0
-230 -115 0 c-132 0 -170 -11 -208 -61 -50 -67 -51 -77 -54 -656 l-4 -543
-157 0 -157 1 -28 40 c-39 57 -84 74 -151 58 -28 -7 -85 -27 -126 -46 -104
-48 -198 -70 -353 -84 -437 -39 -777 65 -1031 315 -228 225 -375 568 -416 971
-8 74 -10 324 -7 760 3 613 5 655 24 746 129 592 522 985 1058 1058 116 16
306 6 417 -23z m2947 -836 c46 -6 154 -29 240 -51 183 -48 222 -48 281 0 38
31 41 31 149 31 l111 0 0 -440 0 -440 -114 0 -115 0 -16 58 c-71 252 -187 397
-400 498 -114 53 -180 68 -286 62 -107 -6 -180 -40 -249 -115 -69 -75 -93
-144 -94 -263 -1 -127 20 -187 88 -255 73 -72 144 -106 416 -195 263 -86 409
-150 525 -231 88 -61 195 -172 244 -253 43 -71 85 -198 101 -301 16 -100 16
-309 1 -395 -77 -426 -397 -701 -816 -701 -157 0 -266 27 -452 114 -264 124
-311 120 -397 -27 l-39 -66 -113 0 -114 0 0 505 0 505 115 0 c84 0 117 -3 119
-12 92 -320 243 -510 486 -609 165 -67 375 -79 475 -27 196 103 253 365 117
543 -78 102 -151 144 -524 300 -148 62 -305 135 -350 161 -98 58 -238 194
-287 276 -129 221 -159 607 -66 843 105 262 349 446 650 488 62 8 233 7 314
-3z m-2838 -36 c60 -58 110 -198 144 -405 17 -109 45 -407 45 -487 0 -52 3
-57 66 -130 l65 -77 -225 -3 -226 -2 0 -329 0 -328 83 -5 c200 -11 267 -122
223 -369 -36 -203 -150 -283 -298 -208 -45 23 -82 70 -111 141 -22 53 -22 55
-25 943 -1 490 1 951 7 1025 10 152 27 206 74 246 27 23 38 26 89 22 47 -4 64
-10 89 -34z m5609 -1189 l0 -365 -125 0 -125 0 0 89 c0 112 -13 182 -47 249
-65 128 -225 208 -364 182 -58 -11 -76 -20 -106 -52 -47 -50 -53 -92 -53 -364
l0 -254 165 0 165 0 0 -115 0 -115 -166 0 -165 0 3 -322 c3 -300 4 -326 23
-362 27 -53 61 -76 142 -96 l68 -16 3 -97 3 -97 -416 0 -416 0 3 97 3 98 55 8
c70 10 97 28 123 85 22 47 22 51 22 757 l0 710 -27 57 c-28 61 -43 73 -103 83
-80 13 -75 7 -75 111 l0 94 705 0 705 0 0 -365z"/>
<path d="M8740 8614 c-14 -2 -56 -9 -95 -15 -436 -71 -793 -451 -904 -961 -29
-137 -41 -289 -41 -550 l0 -227 41 14 c73 26 233 12 246 -21 7 -19 -58 -137
-121 -221 l-54 -72 74 -273 c99 -359 193 -691 199 -697 3 -2 5 23 5 56 0 163
44 601 80 793 11 58 20 110 20 115 0 6 -23 42 -51 80 -60 83 -122 202 -115
220 12 33 167 46 239 21 l37 -14 0 450 c0 249 5 492 11 546 43 392 217 582
534 582 195 -1 371 -116 498 -327 129 -216 226 -570 259 -949 l12 -144 198 0
198 0 0 785 0 785 -93 0 -93 0 -12 -44 c-13 -50 -60 -109 -103 -132 -37 -19
-132 -18 -200 2 -30 8 -115 44 -189 79 -171 81 -296 114 -445 120 -60 2 -121
2 -135 -1z m-612 -609 c-16 -100 -15 -425 1 -505 7 -36 24 -100 38 -142 l25
-77 -29 -38 c-65 -85 -112 -191 -136 -311 -7 -35 -17 -62 -22 -61 -6 0 -20 41
-32 90 -26 106 -78 218 -128 277 l-37 42 22 73 c35 114 127 371 168 465 40 94
132 266 137 260 2 -2 -1 -35 -7 -73z"/>
<path d="M11715 7775 c-161 -29 -321 -117 -424 -232 -69 -76 -135 -213 -157
-323 -13 -65 -15 -115 -11 -220 9 -230 61 -368 189 -505 l69 -74 34 15 c41 17
105 17 160 0 32 -9 50 -9 90 1 27 7 74 13 105 14 l55 0 -105 38 c-213 77 -345
155 -444 261 -56 61 -56 62 -56 123 0 108 46 333 94 462 l15 40 1 -60 c2 -157
47 -290 123 -372 37 -39 47 -59 56 -105 13 -74 42 -129 99 -190 49 -52 171
-138 260 -183 30 -14 51 -29 48 -33 -4 -3 29 -24 73 -47 143 -75 239 -167 272
-262 7 -23 23 -38 54 -53 139 -67 262 -306 284 -552 l7 -83 22 70 c54 168 65
369 27 518 -10 38 -39 110 -64 160 l-46 92 -67 22 c-37 12 -165 43 -285 68
-277 59 -264 55 -233 67 46 17 192 21 240 6 38 -12 52 -12 90 0 44 13 179 11
240 -4 l25 -6 -25 22 c-54 46 -257 133 -500 215 -284 96 -369 136 -442 207
-169 165 -163 513 12 671 266 239 763 97 981 -280 30 -53 79 -180 79 -208 0
-11 11 -15 45 -15 l45 0 0 360 0 360 -55 0 c-45 0 -62 -5 -101 -32 -42 -30
-52 -33 -122 -33 -58 1 -110 10 -207 38 -198 56 -394 71 -550 42z"/>
<path d="M13472 6903 c3 -36 5 -38 43 -43 88 -12 132 -65 154 -185 6 -34 11
-189 11 -372 l0 -314 21 12 c13 6 38 8 62 5 l39 -7 -7 38 c-8 46 -45 129 -72
162 l-20 24 28 66 c29 70 69 245 69 304 0 20 5 39 10 42 6 4 10 -7 10 -27 0
-83 50 -297 84 -357 12 -21 10 -28 -21 -73 -18 -28 -40 -75 -49 -107 -18 -66
-65 -162 -104 -211 l-28 -36 29 -86 c29 -87 69 -291 69 -353 0 -19 4 -36 8
-39 4 -2 14 45 21 105 14 122 40 240 70 319 l20 53 -28 36 c-16 20 -39 55 -51
79 -30 58 -20 67 73 66 73 -2 89 -2 212 0 39 1 87 -2 108 -6 l37 -7 0 40 0 39
-165 0 -165 0 0 294 c0 325 4 353 62 413 48 49 107 68 213 68 261 -1 415 -164
415 -440 l0 -76 63 3 62 3 3 303 2 302 -645 0 -646 0 3 -37z"/>
<path d="M9691 4205 c-259 -73 -503 -411 -552 -766 -29 -210 62 -399 229 -477
52 -25 67 -27 172 -26 207 1 357 61 518 207 30 27 57 45 61 40 4 -4 19 -24 34
-44 32 -45 99 -79 153 -79 93 0 193 81 236 189 27 70 30 213 6 279 -9 23 -14
42 -11 42 11 0 92 -62 126 -98 l38 -39 -11 -64 c-7 -35 -13 -105 -14 -154 -1
-102 14 -140 60 -151 54 -14 71 6 161 194 46 97 87 179 89 181 12 12 11 -16
-7 -133 -20 -140 -17 -198 13 -228 34 -34 98 -15 121 36 8 17 40 96 72 176 31
79 58 146 60 148 2 2 3 -61 3 -139 -2 -157 10 -206 53 -229 29 -16 97 -6 150
21 23 11 42 19 44 17 2 -2 -14 -39 -36 -83 -98 -199 -106 -360 -24 -442 79
-79 191 -7 254 163 26 69 51 208 51 285 0 33 2 59 4 59 2 0 41 -7 87 -16 96
-18 140 -14 215 22 l54 26 30 -26 c67 -56 174 -41 268 39 l31 26 14 -28 c48
-91 148 -93 249 -4 43 38 48 38 48 6 0 -31 41 -75 70 -75 44 0 62 25 154 208
l94 187 -5 -132 c-7 -147 4 -207 43 -244 31 -29 80 -21 176 27 l70 36 32 -31
c62 -59 117 -65 201 -21 l58 30 -7 -31 c-4 -21 -34 -61 -89 -119 -90 -95 -144
-170 -184 -256 -35 -77 -30 -160 12 -204 77 -80 234 -58 303 41 43 63 62 128
78 269 8 69 20 136 25 150 6 14 47 51 92 82 46 32 104 80 131 107 l48 48 -13
64 c-6 35 -14 67 -18 71 -3 4 -33 -27 -66 -69 -61 -78 -157 -163 -163 -145 -2
6 18 131 43 278 40 235 44 269 31 282 -20 21 -79 8 -117 -26 -28 -25 -34 -43
-70 -206 -26 -118 -48 -194 -64 -222 -30 -51 -66 -66 -95 -39 -29 26 -26 102
11 280 45 218 45 211 19 225 -30 16 -82 5 -108 -23 -42 -45 -82 -179 -107
-367 -5 -38 -12 -49 -42 -68 -20 -13 -49 -26 -64 -29 -24 -5 -30 -1 -39 21
-15 41 -12 107 11 246 23 141 19 183 -16 206 -32 21 -89 11 -120 -20 -19 -19
-110 -189 -127 -236 -3 -8 -8 -12 -12 -8 -4 3 -2 51 5 106 6 55 9 111 5 126
-13 52 -90 60 -121 12 -16 -24 -55 -222 -55 -277 0 -34 -102 -149 -150 -169
-68 -28 -76 16 -35 220 38 194 34 220 -36 220 -25 0 -47 8 -67 25 -17 14 -39
25 -49 25 -50 0 -118 -35 -179 -93 -78 -73 -148 -203 -166 -309 -12 -67 -12
-67 -58 -87 -79 -34 -200 -54 -200 -33 0 4 24 22 54 40 119 71 182 177 174
296 -8 124 -66 181 -188 181 -80 0 -129 -27 -172 -94 -31 -49 -78 -186 -78
-227 0 -45 -141 -174 -192 -174 -11 0 -21 13 -29 38 -11 39 -11 44 23 299 15
112 7 143 -39 157 -56 16 -104 -32 -200 -203 -26 -46 -49 -79 -51 -73 -1 5 4
36 12 69 8 32 18 83 22 114 6 49 4 59 -15 78 -47 47 -103 15 -175 -102 -24
-40 -55 -93 -67 -119 -13 -27 -27 -48 -32 -48 -5 0 -7 6 -4 13 13 33 28 167
25 217 l-3 55 -42 3 c-54 4 -76 -18 -92 -89 -7 -30 -14 -60 -17 -67 -3 -9 -22
3 -58 36 -184 168 -434 141 -536 -58 -11 -22 -25 -74 -32 -115 l-12 -76 -120
-85 c-198 -140 -299 -181 -428 -172 -218 16 -279 237 -155 567 112 299 308
471 462 407 106 -45 98 -222 -15 -318 -47 -41 -97 -58 -172 -58 -30 0 -59 -5
-66 -12 -7 -7 -12 -34 -12 -61 0 -46 1 -49 37 -64 189 -79 478 201 447 432
-13 100 -56 167 -135 210 -64 34 -158 42 -238 20z m2203 -631 c26 -25 20 -100
-13 -169 -27 -59 -118 -155 -145 -155 -17 0 -3 140 24 224 12 38 32 79 45 92
28 28 66 31 89 8z m546 13 c0 -32 -74 -310 -92 -345 -32 -62 -71 -78 -100 -42
-60 74 42 338 146 380 21 9 46 12 46 7z m-2024 -33 c40 -60 34 -203 -11 -301
-38 -83 -105 -97 -145 -30 -25 41 -27 153 -3 226 35 110 120 166 159 105z
m1171 -641 c-6 -151 -18 -213 -42 -213 -20 0 -45 40 -45 71 0 52 71 289 87
289 3 0 3 -66 0 -147z m2027 -75 c-10 -83 -53 -208 -80 -235 -17 -16 -33 -23
-52 -21 -24 3 -27 7 -25 37 2 46 63 167 114 224 22 26 43 47 45 47 3 0 2 -24
-2 -52z"/>
</g>
</svg>
